<svg width="138" height="28" viewBox="0 0 138 28" fill="none" xmlns="http://www.w3.org/2000/svg">
<path d="M24.194 1.1L12.317 19.341L10.43 1.1H0.44L3.474 27H15.906L32.852 1.1H24.194ZM49.28 1.1H34.85L27.894 27H37.551L39.512 19.748H42.953L46.69 27H57.161L52.869 18.601C56.458 17.454 58.678 15.382 59.529 12.2L60.454 8.759C60.639 8.019 60.75 7.316 60.75 6.687C60.75 2.802 56.976 1.1 49.28 1.1ZM43.064 6.502H47.097C49.835 6.502 50.76 7.279 50.76 8.537C50.76 8.87 50.686 9.24 50.575 9.647L50.168 11.09C49.65 12.903 48.503 14.235 45.025 14.235H40.992L43.064 6.502ZM59.9438 27H69.6008L76.5568 1.1H66.8998L59.9438 27ZM87.2911 27.444C94.4321 27.444 101.795 25.113 103.349 19.452L103.867 17.565C104.089 16.751 104.2 16.048 104.2 15.382C104.2 12.644 101.795 11.571 95.8011 11.386L89.8441 11.201C88.4381 11.164 87.5501 10.905 87.5501 9.869C87.5501 9.61 87.5871 9.314 87.6981 8.981L87.8461 8.5C88.2901 7.094 90.1031 6.206 92.6931 6.206C95.2461 6.206 96.5041 6.872 96.5041 8.241C96.5041 8.463 96.4671 8.722 96.3931 8.981L96.2451 9.536H105.902L106.346 7.908C106.494 7.39 106.568 6.909 106.568 6.465C106.568 2.358 101.092 0.471 94.2471 0.471C87.1061 0.471 79.7431 2.802 78.2261 8.463L77.7081 10.387C77.4861 11.201 77.3751 11.904 77.3751 12.533C77.3751 15.53 79.8541 16.529 85.8111 16.714L91.6941 16.899C93.1371 16.936 94.0621 17.195 94.0621 18.009C94.0621 18.305 93.9881 18.675 93.8031 19.119L93.6921 19.415C93.2111 20.747 91.6571 21.709 88.8451 21.709C86.5881 21.709 85.0711 20.784 85.0711 19.452C85.0711 19.304 85.1081 19.119 85.1451 18.934L85.2931 18.379H75.6361L75.1921 20.007C75.0441 20.525 74.9701 21.006 74.9701 21.45C74.9701 25.557 80.4461 27.444 87.2911 27.444ZM118.547 27.444C127.501 27.444 133.273 25.15 134.901 18.712L135.493 16.381H125.873L125.651 17.306C124.837 20.636 123.579 21.746 120.101 21.746C117.585 21.746 116.66 21.006 116.66 19.341C116.66 18.712 116.771 17.935 117.03 17.01L118.658 10.942C119.546 7.612 120.767 6.206 124.245 6.206C126.798 6.206 127.76 6.983 127.76 8.611C127.76 9.166 127.649 9.869 127.427 10.683L127.168 11.645H136.788L137.491 8.944C137.713 8.093 137.824 7.353 137.824 6.65C137.824 2.21 133.532 0.471 125.799 0.471C116.845 0.471 111.147 2.802 109.445 9.203L106.929 18.712C106.67 19.637 106.559 20.451 106.559 21.191C106.559 25.742 110.888 27.444 118.547 27.444Z" fill="#242424"/>
</svg>
