<svg width="24" height="24" viewBox="0 0 24 24" fill="none" xmlns="http://www.w3.org/2000/svg">
<g clip-path="url(#clip0_246_52)">
<path d="M21.8999 18.7533L21.6732 18.5533C21.0302 17.9804 20.4673 17.3234 19.9999 16.6C19.4894 15.6017 19.1834 14.5115 19.0999 13.3933V10.1C19.1043 8.34374 18.4672 6.64632 17.3084 5.32665C16.1495 4.00698 14.5486 3.15591 12.8065 2.93333V2.07333C12.8065 1.83729 12.7128 1.61092 12.5459 1.44401C12.379 1.2771 12.1526 1.18333 11.9165 1.18333C11.6805 1.18333 11.4541 1.2771 11.2872 1.44401C11.1203 1.61092 11.0265 1.83729 11.0265 2.07333V2.94667C9.30004 3.18529 7.71852 4.0415 6.57489 5.35674C5.43126 6.67197 4.80302 8.3571 4.80654 10.1V13.3933C4.72304 14.5115 4.41705 15.6017 3.90654 16.6C3.44712 17.3216 2.89333 17.9785 2.25987 18.5533L2.0332 18.7533V20.6333H21.8999V18.7533Z" fill="#777777"/>
<path d="M10.2129 21.3333C10.2714 21.7559 10.4808 22.1431 10.8024 22.4233C11.1241 22.7035 11.5363 22.8579 11.9629 22.8579C12.3895 22.8579 12.8017 22.7035 13.1234 22.4233C13.445 22.1431 13.6544 21.7559 13.7129 21.3333H10.2129Z" fill="#777777"/>
</g>
<defs>
<clipPath id="clip0_246_52">
<rect width="24" height="24" fill="white"/>
</clipPath>
</defs>
</svg>
