<svg width="20" height="20" viewBox="0 0 20 20" fill="none" xmlns="http://www.w3.org/2000/svg">
<path d="M16.6661 2.48938H12.7499C12.6116 1.09378 11.431 0 9.99962 0C8.56821 0 7.38767 1.09378 7.24939 2.48938H3.33318C2.15814 2.48938 1.20215 3.44537 1.20215 4.62041C1.20215 5.76 2.1013 6.69344 3.22741 6.74879V17.4264C3.22741 18.8455 4.38191 20 5.80102 20H14.1983C15.6174 20 16.7719 18.8455 16.7719 17.4264V6.74883C17.898 6.69348 18.7972 5.76004 18.7972 4.62046C18.7972 3.44537 17.8412 2.48938 16.6661 2.48938ZM9.99962 1.30861C10.7082 1.30861 11.2998 1.8178 11.4286 2.48938H8.57061C8.69942 1.8178 9.29105 1.30861 9.99962 1.30861ZM15.4633 17.4264C15.4633 18.124 14.8958 18.6914 14.1983 18.6914H5.80097C5.10344 18.6914 4.53598 18.124 4.53598 17.4264V6.75149C5.07007 6.75149 15.0456 6.75149 15.4633 6.75149V17.4264ZM16.6661 5.44288C16.5297 5.44288 3.44917 5.44288 3.33318 5.44288C2.87971 5.44288 2.51076 5.07394 2.51076 4.62046C2.51076 4.16698 2.87971 3.79804 3.33318 3.79804H16.6661C17.1196 3.79804 17.4885 4.16698 17.4885 4.62046C17.4885 5.07394 17.1196 5.44288 16.6661 5.44288Z" fill="#222222"/>
<path d="M10 17.1133C10.3614 17.1133 10.6543 16.8204 10.6543 16.459V8.88192C10.6543 8.52057 10.3614 8.22762 10 8.22762C9.63866 8.22762 9.3457 8.52057 9.3457 8.88192V16.459C9.3457 16.8204 9.63866 17.1133 10 17.1133Z" fill="#222222"/>
<path d="M13.377 17.1133C13.7383 17.1133 14.0313 16.8204 14.0313 16.459V8.88192C14.0313 8.52057 13.7383 8.22762 13.377 8.22762C13.0156 8.22762 12.7227 8.52057 12.7227 8.88192V16.459C12.7227 16.8204 13.0156 17.1133 13.377 17.1133Z" fill="#222222"/>
<path d="M6.62208 17.1133C6.98343 17.1133 7.27639 16.8204 7.27639 16.459V8.88192C7.27639 8.52057 6.98343 8.22762 6.62208 8.22762C6.26073 8.22762 5.96777 8.52057 5.96777 8.88192V16.459C5.96777 16.8204 6.26073 17.1133 6.62208 17.1133Z" fill="#222222"/>
</svg>
