<svg width="42" height="42" viewBox="0 0 42 42" fill="none" xmlns="http://www.w3.org/2000/svg">
<path d="M35.4647 10.6575C35.404 10.5964 35.3318 10.548 35.2522 10.515C35.1726 10.4821 35.0873 10.4653 35.0012 10.4655H31.8758C32.064 9.11088 32.1577 7.74477 32.1564 6.37711C32.1564 6.20306 32.0872 6.03614 31.9642 5.91307C31.8411 5.79 31.6742 5.72086 31.5001 5.72086H10.5001C10.3261 5.72086 10.1591 5.79 10.0361 5.91307C9.91301 6.03614 9.84387 6.20306 9.84387 6.37711C9.84279 7.74534 9.93681 9.11199 10.1252 10.4672H6.99902C6.82498 10.4672 6.65806 10.5363 6.53498 10.6594C6.41191 10.7825 6.34277 10.9494 6.34277 11.1234C6.34277 13.2833 7.15078 15.3768 8.67984 17.1782C10.1055 18.8582 12.0948 20.2133 14.4401 21.1042C15.4794 22.3273 16.6615 23.269 17.951 23.8555C17.8222 27.7799 15.9716 30.6477 15.3818 31.4655H14.8346C14.443 31.4655 14.0675 31.6211 13.7906 31.898C13.5137 32.1749 13.3581 32.5505 13.3581 32.9421V34.8026C13.3581 35.1942 13.5137 35.5698 13.7906 35.8467C14.0675 36.1236 14.443 36.2791 14.8346 36.2791H27.1672C27.5588 36.2791 27.9344 36.1236 28.2113 35.8467C28.4882 35.5698 28.6438 35.1942 28.6438 34.8026V32.9421C28.6438 32.5505 28.4882 32.1749 28.2113 31.898C27.9344 31.6211 27.5588 31.4655 27.1672 31.4655H26.6283C26.0352 30.6124 24.1846 27.6568 24.0509 23.8547C25.3404 23.2682 26.5225 22.3264 27.5618 21.1034C29.9071 20.2109 31.8963 18.8565 33.322 17.1773C34.8495 15.3727 35.6575 13.2825 35.6575 11.1234C35.6579 11.0369 35.6411 10.9511 35.608 10.8711C35.5749 10.7911 35.5262 10.7185 35.4647 10.6575ZM7.68563 11.7797H10.341C10.8537 14.4933 11.7454 16.9477 12.9282 18.9599C9.85945 17.2471 7.93992 14.6508 7.68563 11.7797ZM27.3313 32.9438V34.8042C27.3313 34.8477 27.314 34.8895 27.2832 34.9202C27.2525 34.951 27.2107 34.9683 27.1672 34.9683H14.8346C14.7911 34.9683 14.7494 34.951 14.7186 34.9202C14.6879 34.8895 14.6706 34.8477 14.6706 34.8042V32.9421C14.6706 32.8986 14.6879 32.8569 14.7186 32.8261C14.7494 32.7953 14.7911 32.778 14.8346 32.778H27.1672C27.2107 32.778 27.2525 32.7953 27.2832 32.8261C27.314 32.8569 27.3313 32.8986 27.3313 32.9421V32.9438ZM16.9625 31.4672C18.2962 29.3048 19.0795 26.8485 19.2438 24.3132C20.397 24.6102 21.6065 24.6102 22.7597 24.3132C22.9656 27.5231 24.2362 30.1014 25.0631 31.468L16.9625 31.4672ZM23.1493 22.8121C21.7685 23.3564 20.2326 23.3564 18.8517 22.8121C16.737 21.9918 14.8027 19.9475 13.4057 17.0518C12.0374 14.2168 11.2491 10.6829 11.1646 7.03418H30.8373C30.7553 10.6829 29.9645 14.2168 28.5962 17.0518C27.1992 19.9467 25.2657 21.9926 23.1493 22.8121ZM29.0736 18.9566C30.2573 16.9419 31.149 14.4892 31.6609 11.7756H34.3154C34.0611 14.6483 32.1424 17.2454 29.0736 18.9591V18.9566Z" fill="#333333"/>
</svg>
