<svg width="42" height="42" viewBox="0 0 42 42" fill="none" xmlns="http://www.w3.org/2000/svg">
<path d="M13.1229 18.0529C13.1229 20.3357 13.9544 22.6475 15.4042 24.3956C16.9289 26.2338 18.9192 27.2463 21.0085 27.2463C23.0975 27.2463 25.0853 26.2344 26.606 24.3972C28.0511 22.6512 28.8798 20.3403 28.8798 18.0569V16.0456C29.4642 13.529 29.5868 11.3511 29.5859 9.96196C29.5847 8.16842 29.3896 6.92926 29.2075 6.36767C29.1108 6.06933 28.8206 5.88812 28.5207 5.91716C28.4712 5.91273 28.4204 5.91322 28.369 5.92052C27.1484 6.09492 25.6511 5.79419 24.0658 5.47583C21.4972 4.9601 18.5953 4.37817 16.3758 5.91691C16.3561 5.91511 16.3361 5.91388 16.3159 5.91388C15.0702 5.91388 13.9643 6.41164 13.2017 7.31546C12.4973 8.15038 12.1094 9.29906 12.1094 10.55C12.1094 12.5987 12.9809 16.3848 13.1228 16.9878V18.0529H13.1229ZM25.5949 23.5604C24.3282 25.0909 22.6993 25.9338 21.0085 25.9338C19.3167 25.9338 17.6852 25.09 16.4145 23.5578C15.1567 22.0413 14.4354 20.0348 14.4354 18.0529V17.2659C14.4354 15.6427 15.5253 13.4361 15.939 12.6573C21.8408 11.9829 25.7911 13.6126 26.6879 14.0323L27.5673 16.1045V18.057C27.5673 20.0399 26.8484 22.0458 25.5949 23.5604ZM16.3159 7.22638C16.3635 7.22638 16.4099 7.22105 16.4546 7.21137C16.6349 7.24976 16.8301 7.21292 16.9885 7.09267C18.758 5.74867 21.325 6.26407 23.8075 6.76265C25.136 7.02942 26.4068 7.28454 27.5881 7.28454C27.7517 7.28454 27.9135 7.27961 28.0736 7.26911C28.2714 8.38039 28.4311 10.7728 27.9864 13.7319L27.8011 13.2953C27.7433 13.1593 27.6415 13.0468 27.5119 12.9759C27.3234 12.8728 22.8216 10.4674 15.495 11.3872C15.2801 11.3981 15.0749 11.5137 14.9592 11.7139C14.9172 11.7866 14.3462 12.7837 13.8519 14.059C13.6275 12.8436 13.4219 11.4768 13.4219 10.5498C13.422 8.25406 14.8754 7.22638 16.3159 7.22638Z" fill="#333333"/>
<path d="M32.3107 28.6991C32.2966 28.6952 32.2823 28.6917 32.268 28.6887L28.3634 27.872L27.3312 26.3068C27.324 26.2957 27.3163 26.2849 27.3084 26.2743C27.1208 26.0241 26.835 25.859 26.5246 25.8212C26.2141 25.7836 25.8971 25.8754 25.6549 26.0736C25.6507 26.077 25.6464 26.0806 25.6423 26.0841L20.9999 30.0805L16.3574 26.0842C16.3533 26.0807 16.3491 26.0772 16.3449 26.0736C16.1027 25.8755 15.7857 25.7836 15.4753 25.8212C15.1648 25.859 14.879 26.0241 14.6914 26.2743C14.6834 26.2849 14.6758 26.2957 14.6686 26.3068L13.6364 27.872L9.73186 28.6887C9.7175 28.6917 9.70323 28.6952 9.68912 28.6991C8.5538 29.0172 7.58797 29.7211 6.89595 30.7347C6.26464 31.6594 5.91699 32.7757 5.91699 33.8779V35.1118C5.91699 36.1942 6.88086 37.0748 8.06564 37.0748H19.5057C19.5065 37.0748 19.5074 37.0749 19.5082 37.0749C19.5091 37.0749 19.51 37.0748 19.5109 37.0748H22.4889C22.4898 37.0748 22.4907 37.0749 22.4916 37.0749C22.4924 37.0749 22.4932 37.0748 22.494 37.0748H33.9341C35.1189 37.0748 36.0828 36.1942 36.0828 35.1118V33.8779C36.0828 32.7756 35.7351 31.6594 35.1038 30.7347C34.4119 29.7212 33.446 29.0172 32.3107 28.6991ZM26.3517 27.2054L27.1665 28.4408L23.9058 32.9241L21.964 30.9825L26.3517 27.2054ZM20.5694 34.4553H21.4304L21.6918 35.7624H20.308L20.5694 34.4553ZM21.6562 32.7832C21.6562 32.9993 21.5245 33.1427 21.4374 33.1427H20.5624C20.4752 33.1427 20.3436 32.9993 20.3436 32.7832V32.5306L20.9998 31.8744L21.6561 32.5306V32.7832H21.6562ZM15.6481 27.2054L20.0358 30.9824L18.094 32.9241L14.8334 28.4407L15.6481 27.2054ZM7.22941 35.1118V33.8779C7.22941 32.3298 8.18885 30.494 10.0229 29.9686L13.7542 29.1882L17.4843 34.3171C17.5972 34.4724 17.7723 34.5703 17.9637 34.5854C17.9808 34.5868 17.998 34.5874 18.015 34.5874C18.1884 34.5874 18.3555 34.5188 18.479 34.3952L19.2443 33.6299C19.279 33.6941 19.3171 33.7556 19.3591 33.8139L18.9695 35.7623H8.06564C7.61233 35.7623 7.22941 35.4644 7.22941 35.1118ZM34.7704 35.1118C34.7704 35.4644 34.3875 35.7623 33.9343 35.7623H23.0304L22.6407 33.8139C22.6827 33.7557 22.7208 33.6942 22.7555 33.63L23.5208 34.3953C23.6444 34.5188 23.8115 34.5875 23.9848 34.5875C24.0018 34.5875 24.019 34.5868 24.0361 34.5855C24.2275 34.5705 24.4027 34.4725 24.5155 34.3172L28.2457 29.1883L31.9769 29.9687C33.811 30.4941 34.7704 32.3299 34.7704 33.878V35.1118Z" fill="#333333"/>
<path d="M5.26354 19.2838C5.26354 20.8783 5.80609 22.3745 6.7912 23.497C7.79108 24.6364 9.12639 25.2638 10.551 25.2638C11.6192 25.2638 12.6475 24.9073 13.525 24.2329C13.8123 24.0121 13.8662 23.6001 13.6453 23.3127C13.4244 23.0253 13.0126 22.9714 12.7251 23.1923C12.0791 23.6888 11.3273 23.9513 10.551 23.9513C8.35915 23.9513 6.57595 21.8575 6.57595 19.2838V18.8981C6.57595 17.8609 7.00489 16.4879 7.22966 15.8393C8.64601 15.7138 9.91077 15.8995 10.9437 16.0521L11.0608 16.0693C11.0932 16.0741 11.1254 16.0764 11.1572 16.0764C11.4773 16.0764 11.7576 15.8419 11.8056 15.5156C11.8584 15.1571 11.6105 14.8236 11.252 14.7708L11.1354 14.7536C9.92939 14.5755 8.42879 14.354 6.67595 14.5784C6.6739 14.5787 6.67177 14.5788 6.66971 14.5792C6.66947 14.5792 6.66922 14.5792 6.66898 14.5792C6.66668 14.5795 6.66446 14.5801 6.66217 14.5805C6.64338 14.5831 6.62468 14.5863 6.60622 14.5906C6.5958 14.5929 6.5858 14.5961 6.57563 14.599C6.56554 14.6019 6.55545 14.6043 6.54552 14.6076C6.53264 14.6119 6.52025 14.617 6.50779 14.622C6.50081 14.6249 6.49368 14.6273 6.4867 14.6304C6.47399 14.6361 6.46168 14.6424 6.44946 14.6489C6.4429 14.6523 6.43625 14.6555 6.42977 14.6591C6.41854 14.6655 6.40787 14.6724 6.39704 14.6794C6.38974 14.6842 6.38236 14.6886 6.37522 14.6936C6.3662 14.7 6.35759 14.7069 6.34897 14.7136C6.34061 14.7202 6.33216 14.7265 6.32412 14.7335C6.31723 14.7394 6.31083 14.7457 6.30427 14.7519C6.29516 14.7605 6.28605 14.7689 6.27744 14.7779C6.27211 14.7836 6.26719 14.7896 6.26202 14.7953C6.25308 14.8055 6.24405 14.8155 6.23569 14.8262C6.23077 14.8325 6.22642 14.8391 6.22174 14.8455C6.21411 14.8561 6.20632 14.8666 6.19927 14.8778C6.19344 14.8869 6.18827 14.8965 6.18294 14.906C6.17794 14.9148 6.17261 14.9234 6.16793 14.9326C6.15907 14.95 6.15103 14.968 6.14373 14.9862C6.14307 14.9878 6.14234 14.9892 6.14168 14.9908C6.14168 14.9909 6.14152 14.9913 6.14143 14.9914C6.14086 14.9929 6.14029 14.9944 6.13971 14.9959C6.12831 15.0252 6.08098 15.1478 6.01346 15.3393C5.96105 14.9221 5.92668 14.529 5.92668 14.2142C5.92668 12.7958 6.61114 12.1609 7.28954 12.1609C7.32162 12.1609 7.35287 12.1578 7.38371 12.1534C7.4148 12.1579 7.44614 12.161 7.47772 12.161C7.61611 12.161 7.75556 12.1174 7.87418 12.0273C8.48671 11.562 9.27691 11.4056 10.436 11.5201C10.7964 11.556 11.1179 11.2922 11.1536 10.9315C11.1892 10.5709 10.9257 10.2496 10.5651 10.214C9.67567 10.1261 8.38835 10.1028 7.26813 10.849C5.70453 10.8617 4.61426 12.2417 4.61426 14.2143C4.61426 15.5964 5.15911 18.1151 5.26354 18.5852V19.2838Z" fill="#333333"/>
<path d="M4.59375 31.1702H1.67237C1.46639 31.1702 1.3125 31.0469 1.3125 30.9367V30.0966C1.3125 29.1233 1.91108 27.9704 3.0555 27.6385L5.44523 27.1386L6.67939 28.9191C6.80687 29.1029 7.01129 29.2015 7.21932 29.2015C7.34828 29.2015 7.47862 29.1635 7.59257 29.0845C7.89042 28.878 7.9645 28.4692 7.75802 28.1713L6.52887 26.3981L6.89186 25.8476L9.45115 27.7585C9.74162 27.9754 10.1528 27.9156 10.3696 27.6253C10.5865 27.3349 10.5268 26.9236 10.2364 26.7068L7.42736 24.6096C7.22055 24.4468 6.95363 24.3718 6.69186 24.4035C6.42411 24.436 6.17769 24.5784 6.01584 24.7942C6.00789 24.8048 6.00034 24.8156 5.99304 24.8267L5.33777 25.8203L2.76396 26.3587C2.74961 26.3617 2.73533 26.3652 2.72122 26.3691C0.934746 26.8695 0 28.6231 0 30.0966V30.9367C0 31.7892 0.750258 32.4827 1.67237 32.4827H4.59375C4.95616 32.4827 5.25 32.1888 5.25 31.8264C5.25 31.464 4.95616 31.1702 4.59375 31.1702Z" fill="#333333"/>
<path d="M30.8307 10.8262C31.7956 10.8455 32.8623 11.0182 33.894 11.1851C34.6735 11.3112 35.4202 11.4309 36.0685 11.4726C36.0456 13.0266 35.9438 14.424 35.8281 15.5493C35.8268 15.5483 35.8254 15.5475 35.8241 15.5465C35.8137 15.5389 35.8031 15.5319 35.7923 15.525C35.7873 15.5218 35.7829 15.5182 35.7778 15.5151C35.7721 15.5117 35.7662 15.5085 35.7605 15.5051C35.7598 15.5046 35.759 15.5042 35.7582 15.5037C34.445 14.7128 32.8534 14.2565 30.8929 14.1095C30.5312 14.0821 30.2166 14.3534 30.1894 14.7148C30.1623 15.0762 30.4333 15.3912 30.7947 15.4183C32.4669 15.5437 33.8209 15.9109 34.9265 16.5382C35.0819 16.9048 35.4241 17.8326 35.4241 18.8981V19.2838C35.4241 21.8576 33.6409 23.9513 31.449 23.9513C30.6728 23.9513 29.921 23.6888 29.2749 23.1923C28.9876 22.9715 28.5755 23.0253 28.3547 23.3127C28.1339 23.6001 28.1877 24.012 28.4751 24.2329C29.3525 24.9074 30.3809 25.2638 31.449 25.2638C32.8737 25.2638 34.209 24.6364 35.2088 23.497C36.194 22.3744 36.7365 20.8782 36.7365 19.2838V18.5746C36.8287 18.084 37.3705 15.029 37.385 10.9913C37.4019 10.9266 37.4092 10.8582 37.4051 10.7878C37.3846 10.4377 37.0926 10.1684 36.746 10.171C36.7405 10.1708 36.7351 10.1702 36.7295 10.1702C36.7168 10.1702 36.7044 10.1714 36.6919 10.172C36.0568 10.205 35.108 10.0519 34.1036 9.88944C33.0773 9.72341 31.9141 9.53515 30.8569 9.51406C30.4922 9.50529 30.1949 9.79469 30.1876 10.157C30.1805 10.5194 30.4684 10.819 30.8307 10.8262Z" fill="#333333"/>
<path d="M39.2788 26.369C39.2647 26.3651 39.2505 26.3616 39.2361 26.3586L36.6623 25.8202L36.007 24.8266C35.9997 24.8156 35.9921 24.8048 35.9842 24.7941C35.8224 24.5783 35.5759 24.4359 35.3082 24.4034C35.0463 24.3717 34.7795 24.4466 34.5727 24.6095L31.7637 26.7067C31.4732 26.9236 31.4136 27.3348 31.6305 27.6252C31.8474 27.9156 32.2586 27.9753 32.5489 27.7584L35.1082 25.8475L35.4712 26.398L34.242 28.1712C34.0355 28.469 34.1096 28.8779 34.4074 29.0843C34.5214 29.1633 34.6517 29.2013 34.7807 29.2013C34.9886 29.2013 35.1931 29.1027 35.3206 28.9189L36.5547 27.1385L38.9445 27.6384C40.0888 27.9702 40.6875 29.1232 40.6875 30.0964V30.9365C40.6875 31.0467 40.5336 31.17 40.3276 31.17H37.4062C37.0438 31.17 36.75 31.4638 36.75 31.8262C36.75 32.1886 37.0438 32.4825 37.4062 32.4825H40.3276C41.2497 32.4825 42 31.789 42 30.9365V30.0964C42 28.6231 41.0652 26.8695 39.2788 26.369Z" fill="#333333"/>
</svg>
