<svg width="42" height="42" viewBox="0 0 42 42" fill="none" xmlns="http://www.w3.org/2000/svg">
<path d="M21 5C12.1873 5 5 12.1873 5 21C5 29.8127 12.1873 37 21 37C29.8127 37 37 29.8127 37 21C37 12.1873 29.8127 5 21 5ZM21 34.9683C13.3048 34.9683 7.03175 28.6952 7.03175 21C7.03175 13.3048 13.3048 7.03175 21 7.03175C28.6952 7.03175 34.9683 13.3048 34.9683 21C34.9683 28.6952 28.6952 34.9683 21 34.9683Z" fill="#333333"/>
<path d="M22.0161 18.5873H19.9844V28.746H22.0161V18.5873Z" fill="#333333"/>
<path d="M22.0161 13.7619H19.9844V15.7936H22.0161V13.7619Z" fill="#333333"/>
</svg>
