<svg width="42" height="42" viewBox="0 0 42 42" fill="none" xmlns="http://www.w3.org/2000/svg">
<path d="M34.686 23.8472L30.7574 19.9194C30.6485 19.8119 30.5031 19.7515 30.3512 19.7515C30.1992 19.7515 30.0533 19.8119 29.9455 19.9194L29.2606 20.6046C29.0372 20.8289 29.0372 21.1918 29.2606 21.416L32.0978 24.2528L29.2606 27.0916C29.0372 27.3159 29.0365 27.6787 29.2606 27.903L29.9455 28.5884C30.0534 28.6959 30.1992 28.7563 30.3512 28.7563C30.5031 28.7563 30.6485 28.6959 30.7574 28.5884L34.686 24.6585C34.7942 24.551 34.8545 24.4048 34.8545 24.2528C34.8545 24.1008 34.7942 23.9546 34.686 23.8472Z" fill="#333333"/>
<path d="M24.8211 16.3095L22.3776 17.2387L20.5562 14.8149V14.4458C20.5562 12.975 19.3634 11.7822 17.8925 11.7822H16.7542C15.872 11.7822 15.0947 12.2168 14.6098 12.8788L11.2606 14.5761C11.0015 14.7079 10.7927 14.9214 10.6664 15.1834L8.7253 19.2238C8.40931 19.8827 8.68701 20.673 9.34565 20.9898C9.52928 21.0781 9.72505 21.1205 9.91697 21.1205C10.41 21.1205 10.8833 20.844 11.1108 20.3701L12.8577 16.7338L14.0911 16.109V24.0622L14.4091 28.0138L8.91645 30.9829C8.06794 31.4418 7.75144 32.5012 8.21077 33.3498C8.52561 33.9344 9.12758 34.2661 9.74741 34.2661C10.029 34.2661 10.3131 34.1983 10.5767 34.0558L17.1036 30.5275C17.7291 30.1895 18.0879 29.5058 18.0095 28.7992L17.7137 26.1226L19.6073 29.532V35.2538C19.6073 36.218 20.3901 37 21.3543 37C22.3187 37 23.1007 36.2181 23.1007 35.2538V29.0794C23.1007 28.7827 23.0244 28.4906 22.8806 28.2313L20.5562 24.0621V19.2189L20.86 19.6236C21.1156 19.9638 21.51 20.1523 21.9173 20.1523C22.0759 20.1523 22.2348 20.1244 22.3879 20.0661L25.7613 18.7828C26.4446 18.5228 26.7879 17.7584 26.5271 17.0758C26.2682 16.3932 25.505 16.0475 24.8211 16.3095Z" fill="#333333"/>
<path d="M17.3241 11.1868C19.0318 11.1868 20.417 9.80228 20.417 8.09352C20.417 6.38449 19.0318 5 17.3241 5C15.6147 5 14.2295 6.38449 14.2295 8.09358C14.2295 9.80235 15.6146 11.1868 17.3241 11.1868Z" fill="#333333"/>
</svg>
