<svg width="42" height="42" viewBox="0 0 42 42" fill="none" xmlns="http://www.w3.org/2000/svg">
<path d="M32.8298 5H18.8697C18.6888 5 18.5159 5.07184 18.3883 5.19951L9.19944 14.3883C9.07177 14.516 9 14.6892 9 14.8697V36.3191C9 36.6952 9.30446 37 9.68081 37H32.8297C33.206 37 33.5105 36.6952 33.5105 36.3191V5.68088C33.5106 5.30485 33.2061 5 32.8298 5ZM18.1888 7.3245V14.1888H11.3245L15.0013 10.512L18.1888 7.3245ZM32.1489 35.6382H10.3618V15.5505H18.8697C19.246 15.5505 19.5506 15.2457 19.5506 14.8696V6.3617H32.1489V35.6382V35.6382Z" fill="#333333"/>
</svg>
