<svg width="42" height="42" viewBox="0 0 42 42" fill="none" xmlns="http://www.w3.org/2000/svg">
<path d="M41.3197 30.1166H30.8004L32.4934 26.7483C32.6012 26.5337 32.5879 26.278 32.4584 26.0757C32.3288 25.8735 32.102 25.7549 31.862 25.7628L17.3261 26.2641V24.8938L34.8426 23.4924C35.1177 23.4704 35.3523 23.2843 35.4364 23.0214C35.5204 22.7586 35.4373 22.4709 35.2259 22.2934L17.3261 7.25747V5.39741C17.3261 5.02168 17.0215 4.71706 16.6458 4.71706C16.2701 4.71706 15.9654 5.02168 15.9654 5.39741V11.7942L10.9368 24.0067C10.8569 24.2008 10.871 24.421 10.9752 24.6033C11.0793 24.7855 11.2618 24.9095 11.4696 24.9393L15.9654 25.5815V26.311L10.8168 26.4886C10.617 26.4955 10.4304 26.5898 10.3065 26.7467C10.1826 26.9035 10.1339 27.1069 10.1733 27.3028L10.7396 30.1167H0.680346C0.304613 30.1167 0 30.4213 0 30.7971C0 31.1728 0.304613 31.4774 0.680346 31.4774H41.3197C41.6954 31.4774 42 31.1728 42 30.7971C42 30.4213 41.6954 30.1166 41.3197 30.1166ZM33.0807 22.2683L17.3261 23.5287V11.9261C17.3261 11.9241 17.3261 11.922 17.3261 11.92V9.03445L33.0807 22.2683ZM12.528 23.7158L15.9654 15.3678V24.2069L12.528 23.7158ZM11.6655 27.8208L30.7625 27.1622L29.2775 30.1166H12.1275L11.6655 27.8208Z" fill="#333333"/>
<path d="M28.2567 33.0194H15.194C14.8183 33.0194 14.5137 33.324 14.5137 33.6998C14.5137 34.0755 14.8183 34.3801 15.194 34.3801H28.2567C28.6324 34.3801 28.937 34.0755 28.937 33.6998C28.937 33.324 28.6324 33.0194 28.2567 33.0194Z" fill="#333333"/>
<path d="M12.2916 33.0194H6.48601C6.11028 33.0194 5.80566 33.324 5.80566 33.6998C5.80566 34.0755 6.11028 34.3801 6.48601 34.3801H12.2916C12.6674 34.3801 12.972 34.0755 12.972 33.6998C12.972 33.324 12.6674 33.0194 12.2916 33.0194Z" fill="#333333"/>
<path d="M32.6112 33.0194H31.1598C30.7841 33.0194 30.4795 33.324 30.4795 33.6998C30.4795 34.0755 30.7841 34.3801 31.1598 34.3801H32.6112C32.987 34.3801 33.2916 34.0755 33.2916 33.6998C33.2916 33.324 32.987 33.0194 32.6112 33.0194Z" fill="#333333"/>
<path d="M26.8054 35.9222H19.5485C19.1728 35.9222 18.8682 36.2269 18.8682 36.6026C18.8682 36.9783 19.1728 37.2829 19.5485 37.2829H26.8054C27.1812 37.2829 27.4858 36.9783 27.4858 36.6026C27.4858 36.2269 27.1812 35.9222 26.8054 35.9222Z" fill="#333333"/>
<path d="M16.6455 35.9222H15.194C14.8183 35.9222 14.5137 36.2269 14.5137 36.6026C14.5137 36.9783 14.8183 37.2829 15.194 37.2829H16.6455C17.0212 37.2829 17.3259 36.9783 17.3259 36.6026C17.3259 36.2269 17.0212 35.9222 16.6455 35.9222Z" fill="#333333"/>
</svg>
